:SAMPLES-PER-SECOND 30
:FULLY-SPECIFIED
:DEGREES
65
root  49.0066 40.1525 -6.80855 140.503 -84.8964 -135.298
RightUpLeg  -27.0486 -1.64745 2.48027
RightLeg  37.6431 -7.614 -6.58188
RightFoot  -6.90224 -0.210884 4.2451
RightToes  -1.74624e-010 0 -3.6325e-017
Spine  10.0981 -4.36208 -0.202053
Spine1  2.82497 -5.70672 5.23273
HEad  -21.0112 14.9852 -7.04083
LeftShoulder1  7.83417 -11.8651 -44.3901
LeftArm  5.31463 18.5037 -26.7977
LeftForeArm  176.328 -60.3011 -163.196
LeftHand  -0.244104 0.0205437 5.32207
RightShoulder  4.91657 8.9947 33.3963
RightArm  13.8227 -47.5263 21.7254
RightForeArm  153.144 67.0499 154.959
RightHand  -0.110388 -11.9748 0.770065
LeftUpLeg  7.75673 14.3514 1.99277
LeftLeg  13.2933 6.71406 -0.689721
LeftFoot  -5.88276 0.310928 -5.98078
LeftToes  1.61887e-010 9.40759e-012 5.52375e-011
66
root  46.952 40.5291 -6.81011 145.779 -84.1099 -140.431
RightUpLeg  -25.0958 -2.86195 4.54437
RightLeg  27.1169 -4.53241 -2.70461
RightFoot  -8.4339 -0.197934 5.62304
RightToes  -1.74624e-010 0 -3.6325e-017
Spine  8.70181 -4.40861 0.601412
Spine1  3.2091 -5.62867 4.92755
HEad  -19.2225 15.6624 -5.90836
LeftShoulder1  7.71915 -12.0155 -43.2584
LeftArm  7.71924 16.4161 -28.2508
LeftForeArm  179.52 -61.1696 -162.908
LeftHand  -0.244104 0.0205437 5.32207
RightShoulder  4.89719 9.2812 32.3623
RightArm  10.3339 -50.6103 24.024
RightForeArm  149.887 66.6712 155.006
RightHand  0.00532775 -11.669 -1.27652
LeftUpLeg  9.22544 16.2874 3.20273
LeftLeg  14.4992 5.01648 -0.43468
LeftFoot  1.9518 0.762559 -6.74266
LeftToes  1.61887e-010 9.40759e-012 5.52375e-011
67
root  45.0046 40.4897 -6.81324 148.657 -84.1782 -143.922
RightUpLeg  -22.8599 -4.33391 5.7865
RightLeg  20.8647 -2.98952 -1.42741
RightFoot  -11.0146 -0.0951241 6.63939
RightToes  -1.74624e-010 0 -3.6325e-017
Spine  8.29973 -4.37809 1.30865
Spine1  3.87023 -5.44736 4.60486
HEad  -18.2615 15.1226 -5.14497
LeftShoulder1  7.6687 -12.1592 -42.5395
LeftArm  9.4098 13.516 -29.6763
LeftForeArm  -179.618 -62.7964 -161.82
LeftHand  -0.244104 0.0205437 5.32207
RightShoulder  4.85787 9.3767 31.7707
RightArm  4.98468 -52.0244 28.3202
RightForeArm  146.337 67.1892 153.971
RightHand  0.108044 -11.0159 -3.30404
LeftUpLeg  8.40553 16.8121 2.93213
LeftLeg  21.1399 2.40262 1.63475
LeftFoot  5.61957 0.892697 -6.19702
LeftToes  1.61887e-010 9.40759e-012 5.52375e-011
68
root  43.1482 39.9939 -6.82257 145.319 -84.7128 -141.821
RightUpLeg  -20.9126 -6.00124 6.71022
RightLeg  19.8277 -3.17293 -1.41029
RightFoot  -13.1554 0.00500085 5.99577
RightToes  -1.74624e-010 0 -3.6325e-017
Spine  8.8214 -4.36701 2.67927
Spine1  4.40278 -5.0752 3.9835
HEad  -16.8811 13.4768 -5.26536
LeftShoulder1  7.61007 -12.255 -41.9168
LeftArm  10.7685 10.2789 -30.899
LeftForeArm  177.821 -65.2705 -159.528
LeftHand  -0.244104 0.0205437 5.32207
RightShoulder  4.64448 9.10437 30.8805
RightArm  -1.44907 -51.958 34.5587
RightForeArm  145.086 68.7505 151.814
RightHand  0.11344 -10.9711 -3.46679
LeftUpLeg  6.29924 10.8745 2.08037
LeftLeg  31.4057 3.78417 2.79915
LeftFoot  4.96011 0.940957 -6.80062
LeftToes  1.61887e-010 9.40759e-012 5.52375e-011
69
root  41.3019 39.1748 -6.82677 135.329 -85.0201 -133.235
RightUpLeg  -19.7677 -6.66734 7.70253
RightLeg  23.568 -4.01837 -2.15945
RightFoot  -13.7079 -0.0311337 2.8127
RightToes  -1.74624e-010 0 -3.6325e-017
Spine  9.6579 -4.22301 4.99119
Spine1  4.68175 -4.33287 3.03705
HEad  -15.401 11.2106 -5.78308
LeftShoulder1  7.44918 -12.1781 -41.1798
LeftArm  11.6421 6.96072 -32.7295
LeftForeArm  175.447 -67.8036 -156.772
LeftHand  -0.244104 0.0205437 5.32207
RightShoulder  4.37633 8.69883 29.909
RightArm  -6.77303 -50.9692 40.0531
RightForeArm  145.407 69.803 150.349
RightHand  0.0915862 -11.1394 -2.95482
LeftUpLeg  3.96903 6.49557 2.49073
LeftLeg  42.3106 2.90898 3.20655
LeftFoot  2.64738 0.998095 -8.25913
LeftToes  1.61887e-010 9.40759e-012 5.52375e-011
70
root  39.4542 38.2234 -6.80827 122.177 -84.6298 -121.327
RightUpLeg  -19.5774 -5.44505 8.89122
RightLeg  30.8124 -5.75356 -3.97234
RightFoot  -14.7714 -0.166828 -1.88889
RightToes  -1.74624e-010 0 -3.6325e-017
Spine  10.6924 -4.03187 7.9567
Spine1  4.77613 -3.49517 2.1948
HEad  -15.5387 9.13296 -6.24353
LeftShoulder1  7.42663 -11.9239 -41.7789
LeftArm  11.2081 3.79356 -34.4303
LeftForeArm  176.843 -69.0911 -155.445
LeftHand  -0.244104 0.0205437 5.32207
RightShoulder  4.53654 8.67644 31.2879
RightArm  -7.58425 -48.1007 39.1161
RightForeArm  144.644 69.1909 151.136
RightHand  0.120711 -11.155 -3.51242
LeftUpLeg  0.907227 2.84763 3.82842
LeftLeg  52.7224 2.3573 3.8303
LeftFoot  0.573924 0.872996 -8.36361
LeftToes  1.61887e-010 9.40759e-012 5.52375e-011
71
root  37.6434 37.2804 -6.76258 110.381 -83.6599 -110.498
RightUpLeg  -19.5732 -4.6964 10.2895
RightLeg  39.0227 -7.02712 -6.34138
RightFoot  -18.8256 -0.431086 -4.75021
RightToes  -1.74624e-010 0 -3.6325e-017
Spine  11.804 -4.09595 10.9962
Spine1  5.22965 -3.04792 1.73132
HEad  -17.837 7.85411 -6.9
LeftShoulder1  7.89225 -11.8311 -44.825
LeftArm  8.84874 2.07097 -34.3087
LeftForeArm  -179.677 -68.7681 -156.233
LeftHand  -0.244104 0.0205437 5.32207
RightShoulder  5.39804 9.23821 36.3326
RightArm  -4.29745 -41.0229 31.3481
RightForeArm  139.484 68.4746 151.498
RightHand  0.238579 -11.2262 -5.75038
LeftUpLeg  -3.53659 -0.13615 5.7231
LeftLeg  62.4248 2.56122 5.99116
LeftFoot  -1.1647 0.565235 -6.24918
LeftToes  1.61887e-010 9.40759e-012 5.52375e-011
72
root  35.8329 36.5907 -6.71833 102.128 -82.7748 -102.759
RightUpLeg  -18.1987 -5.78818 11.0703
RightLeg  44.2536 -6.95522 -7.50089
RightFoot  -24.3636 -0.637251 -4.20738
RightToes  -1.74624e-010 0 -3.6325e-017
Spine  12.2302 -4.25379 13.4492
Spine1  6.43418 -2.78889 1.36262
HEad  -20.6318 7.01471 -7.75944
LeftShoulder1  8.75602 -12.1806 -48.7264
LeftArm  5.4494 3.69804 -32.5098
LeftForeArm  -179.087 -67.7792 -157.419
LeftHand  -0.244104 0.0205437 5.32207
RightShoulder  6.52086 10.0001 42.0373
RightArm  -1.86342 -30.318 24.8829
RightForeArm  132.435 69.6123 148.87
RightHand  0.37124 -10.978 -8.59241
LeftUpLeg  -9.29008 -2.24274 7.52647
LeftLeg  69.811 2.70286 8.94076
LeftFoot  -2.80451 0.27511 -3.45808
LeftToes  1.61887e-010 9.40759e-012 5.52375e-011
73
root  33.8616 36.3924 -6.72486 99.741 -83.0029 -100.364
RightUpLeg  -14.5856 -7.64312 10.1584
RightLeg  44.4686 -5.97784 -6.5888
RightFoot  -28.1772 -0.59782 -2.72233
RightToes  -1.74624e-010 0 -3.6325e-017
Spine  11.5256 -3.60574 14.6589
Spine1  7.68271 -1.7474 0.326294
HEad  -21.8485 5.38611 -7.73828
LeftShoulder1  9.50675 -12.7002 -51.208
LeftArm  3.26665 8.99813 -30.2246
LeftForeArm  177.82 -66.9384 -157.953
LeftHand  -0.244104 0.0205437 5.32207
RightShoulder  7.09182 10.4276 44.45
RightArm  -2.56928 -21.288 25.6206
RightForeArm  132.27 71.1156 146.342
RightHand  0.368764 -10.314 -9.54645
LeftUpLeg  -15.2025 -3.05802 7.95173
LeftLeg  72.8661 2.64983 10.6183
LeftFoot  -4.73924 0.136429 -1.89463
LeftToes  1.61887e-010 9.40759e-012 5.52375e-011
74
root  31.6517 36.7708 -6.80505 105.332 -84.9719 -105.591
RightUpLeg  -9.07143 -8.62859 7.1584
RightLeg  40.5066 -5.14508 -4.99319
RightFoot  -28.8546 -0.525377 -2.1546
RightToes  -1.74624e-010 0 -3.6325e-017
Spine  10.3661 -1.71826 14.3814
Spine1  7.8461 0.666634 -2.08354
HEad  -21.0428 2.20037 -5.70167
LeftShoulder1  9.73099 -12.9258 -51.6814
LeftArm  3.92006 15.9265 -27.422
LeftForeArm  174.919 -65.9031 -158.647
LeftHand  -0.244104 0.0205437 5.32207
RightShoulder  7.00408 10.4109 43.9139
RightArm  -4.99208 -17.6015 31.2208
RightForeArm  142.311 69.9589 149.592
RightHand  0.277673 -9.98242 -8.05422
LeftUpLeg  -19.9199 -2.36797 6.10901
LeftLeg  70.9014 3.02116 10.5907
LeftFoot  -7.09169 0.120394 -2.18052
LeftToes  1.61887e-010 9.40759e-012 5.52375e-011
75
root  29.2606 37.6198 -6.90256 139.849 -87.6008 -139.405
RightUpLeg  -2.80709 -8.58884 2.77441
RightLeg  34.12 -4.35795 -3.45027
RightFoot  -26.51 -0.281375 -0.725606
RightToes  -1.74624e-010 0 -3.6325e-017
Spine  9.33654 0.763597 13.1024
Spine1  6.7872 3.72009 -5.69744
HEad  -19.1873 -1.85514 -2.24073
LeftShoulder1  9.42923 -12.6846 -50.8331
LeftArm  6.56448 22.2207 -23.7783
LeftForeArm  174.722 -64.1584 -160.183
LeftHand  -0.244104 0.0205437 5.32207
RightShoulder  6.79108 10.1808 43.2638
RightArm  -5.56664 -17.4653 36.0418
RightForeArm  150.38 66.3986 155.366
RightHand  0.256125 -10.2597 -7.11494
LeftUpLeg  -23.1229 -0.471431 2.52727
LeftLeg  64.4287 4.25734 10.2504
LeftFoot  -9.14259 0.126424 -3.72312
LeftToes  1.61887e-010 9.40759e-012 5.52375e-011
76
root  26.7946 38.6808 -6.931 -136.566 -88.2731 138.148
RightUpLeg  2.94157 -9.27123 -1.80975
RightLeg  27.0209 -2.23617 -1.50065
RightFoot  -20.543 0.0801684 3.02075
RightToes  -1.74624e-010 0 -3.6325e-017
Spine  7.9507 2.83642 11.6919
Spine1  5.65175 6.13311 -9.38003
HEad  -17.0868 -5.25152 0.705656
LeftShoulder1  8.89496 -12.2188 -49.3852
LeftArm  8.57743 27.7183 -20.2924
LeftForeArm  175.758 -62.0101 -161.967
LeftHand  -0.244104 0.0205437 5.32207
RightShoulder  6.60181 9.8961 42.9287
RightArm  -1.93967 -17.2951 37.7779
RightForeArm  149.467 63.5746 158.106
RightHand  0.299672 -10.2081 -8.09404
LeftUpLeg  -25.1784 2.09591 -1.46303
LeftLeg  54.3633 6.26893 9.77723
LeftFoot  -10.0244 0.117958 -4.93506
LeftToes  1.61887e-010 9.40759e-012 5.52375e-011
77
root  24.3448 39.6465 -6.86441 -94.7353 -87.005 97.4215
RightUpLeg  7.22443 -11.719 -5.54932
RightLeg  21.9189 0.973197 0.233883
RightFoot  -10.7182 -0.103954 6.87693
RightToes  -1.74624e-010 0 -3.6325e-017
Spine  6.15142 4.01564 10.9043
Spine1  5.35951 7.4527 -11.8458
HEad  -15.045 -7.33064 1.92975
LeftShoulder1  8.56135 -12.0684 -47.9896
LeftArm  8.38138 33.3601 -18.0169
LeftForeArm  176.412 -60.0005 -163.399
LeftHand  -0.244104 0.0205437 5.32207
RightShoulder  6.28163 9.65691 41.4979
RightArm  4.05796 -16.0211 38.014
RightForeArm  150.332 62.3103 159.257
RightHand  0.186522 -10.2225 -5.97277
LeftUpLeg  -25.9872 4.77115 -4.82965
LeftLeg  42.0816 7.4725 7.62078
LeftFoot  -9.96821 0.11636 -4.7
LeftToes  1.61887e-010 9.40759e-012 5.52375e-011
78
root  21.9467 40.3167 -6.75719 -74.7303 -86.5348 77.6075
RightUpLeg  9.70435 -13.2606 -7.54329
RightLeg  21.382 2.37579 0.813043
RightFoot  -0.175489 -0.76263 7.96289
RightToes  -1.74624e-010 0 -3.6325e-017
Spine  5.17109 4.46707 10.5553
Spine1  5.59484 7.92168 -12.6409
HEad  -13.5626 -8.554 1.90014
LeftShoulder1  8.66673 -12.5026 -47.2491
LeftArm  5.99768 38.7322 -17.4353
LeftForeArm  176.99 -58.4887 -164.379
LeftHand  -0.244104 0.0205437 5.32207
RightShoulder  6.04185 9.74094 39.5113
RightArm  9.32656 -14.5891 37.5946
RightForeArm  159.092 61.0201 161.087
RightHand  -0.168492 -11.5975 1.81705
LeftUpLeg  -25.0758 7.15878 -7.26524
LeftLeg  29.6648 5.74449 3.97707
LeftFoot  -10.4081 0.0967661 -4.39471
LeftToes  1.61887e-010 9.40759e-012 5.52375e-011
